/* XPM */
static char *_69965e56e3242ddbeb5c4d1603fab2a[] = {
/* columns rows colors chars-per-pixel */
"16 16 52 1 ",
"  c black",
". c gray1",
"X c gray2",
"o c #060606",
"O c #111111",
"+ c gray8",
"@ c #1B1B1B",
"# c gray11",
"$ c #1D1D1D",
"% c #1E1E1E",
"& c gray12",
"* c gray16",
"= c gray18",
"- c gray22",
"; c #3F3F3F",
": c gray28",
"> c gray29",
", c gray36",
"< c gray40",
"1 c #6A6A6A",
"2 c gray46",
"3 c gray47",
"4 c gray48",
"5 c #7B7B7B",
"6 c #7C7C7C",
"7 c gray52",
"8 c #868686",
"9 c gray53",
"0 c gray56",
"q c #9D9D9D",
"w c gray66",
"e c gray67",
"r c gray68",
"t c #AFAFAF",
"y c #B1B1B1",
"u c #D0D0D0",
"i c gray85",
"p c #DADADA",
"a c gainsboro",
"s c #DDDDDD",
"d c gray87",
"f c gray88",
"g c #E4E4E4",
"h c gray92",
"j c gray94",
"k c gray95",
"l c gray97",
"z c #F8F8F8",
"x c #FDFDFD",
"c c #FEFEFE",
"v c gray100",
"b c None",
/* pixels */
"bbbbb      bbbbb",
"bbb          bbb",
"bb    >8883;  bb",
"b    oyvvvvg=  b",
"b    %avawvj-  b",
"     :lvq3va%   ",
"     5vv3eveo   ",
"    oyvvglv<    ",
"    %avzha0O    ",
"    :lve*@o     ",
"    5vv1        ",
"b  oyvj-       b",
"b  %avu+       b",
"bb %68,       bb",
"bbb          bbb",
"bbbbb      bbbbb"
};
