/* XPM */
static char *_88284ae5c3144d9ba599fb58fa5f173[] = {
/* columns rows colors chars-per-pixel */
"32 32 77 1 ",
"  c black",
". c #010101",
"X c gray1",
"o c #040404",
"O c #0B0B0B",
"+ c gray5",
"@ c #0E0E0E",
"# c gray6",
"$ c #111111",
"% c gray8",
"& c #181818",
"* c #1D1D1D",
"= c gray12",
"- c #202020",
"; c gray13",
": c gray14",
"> c #252525",
", c gray15",
"< c #272727",
"1 c #282828",
"2 c gray17",
"3 c #2C2C2C",
"4 c gray18",
"5 c #323232",
"6 c #343434",
"7 c #3A3A3A",
"8 c gray23",
"9 c gray24",
"0 c gray29",
"q c gray30",
"w c #505050",
"e c #535353",
"r c gray36",
"t c gray40",
"y c #686868",
"u c gray44",
"i c #818181",
"p c #888888",
"a c #8B8B8B",
"s c #8E8E8E",
"d c #939393",
"f c #9D9D9D",
"g c #9F9F9F",
"h c #A7A7A7",
"j c gray66",
"k c #AAAAAA",
"l c gray72",
"z c #B9B9B9",
"x c gray",
"c c gray75",
"v c gray77",
"b c #C5C5C5",
"n c #CBCBCB",
"m c #CDCDCD",
"M c LightGray",
"N c gray83",
"B c #D5D5D5",
"V c gray86",
"C c gray88",
"Z c gray89",
"A c #E4E4E4",
"S c gray90",
"D c #E6E6E6",
"F c #E7E7E7",
"G c #E9E9E9",
"H c #EAEAEA",
"J c gray93",
"K c gray94",
"L c gray95",
"P c #F3F3F3",
"I c #F6F6F6",
"U c #F8F8F8",
"Y c #F9F9F9",
"T c gray98",
"R c #FDFDFD",
"E c gray100",
"W c None",
/* pixels */
"WWWWWWWWWWWW        WWWWWWWWWWWW",
"WWWWWWWWW              WWWWWWWWW",
"WWWWWWW                  WWWWWWW",
"WWWWWW                    WWWWWW",
"WWWWW       o;>>>>>>=$     WWWWW",
"WWWW        4BGFFFFFCmf7    WWWW",
"WWW         rEEEEEEEEEEV4    WWW",
"WW          dEEEEEEEEEEEt    WWW",
"WW         @vEEEEJvPEEEEy     WW",
"W          4FEEEEk@kEEEI0      W",
"W          rEEEEEuozEEEF>      W",
"W          dEEEEP7;VEEExO      W",
"          @vEEEEB$qTEEEa        ",
"          4GEEEEh@fEEETe        ",
"          rEEEEEMzIEEEV;        ",
"          dEEEEEEEEEEEs         ",
"         @vEEEEEEEEEEx;         ",
"         4GEEEEIPJFni=          ",
"         rEEEEEp561$            ",
"         dEEEEI9                ",
"W       @vEEEEB&               W",
"W       4GEEEEh                W",
"W       rEEEEEu                W",
"WW      dEEEEI9               WW",
"WW     @vEEEEB&              WWW",
"WWW    4GEEEEh               WWW",
"WWWW   eCFCFFy              WWWW",
"WWWWW  @>>>>;@             WWWWW",
"WWWWWW                    WWWWWW",
"WWWWWWWW                WWWWWWWW",
"WWWWWWWWW              WWWWWWWWW",
"WWWWWWWWWWWW        WWWWWWWWWWWW"
};
