/* XPM */
static char *_39203e4ccf6465de685ed1ce37be3b7[] = {
/* columns rows colors chars-per-pixel */
"64 64 108 2 ",
"   c black",
".  c #020202",
"X  c gray1",
"o  c #040404",
"O  c gray2",
"+  c #060606",
"@  c #070707",
"#  c gray4",
"$  c #0C0C0C",
"%  c #0E0E0E",
"&  c gray6",
"*  c #101010",
"=  c gray7",
"-  c #151515",
";  c #161616",
":  c gray10",
">  c #1B1B1B",
",  c gray11",
"<  c #1E1E1E",
"1  c #202020",
"2  c gray14",
"3  c #252525",
"4  c gray15",
"5  c #272727",
"6  c #282828",
"7  c gray16",
"8  c gray17",
"9  c #2D2D2D",
"0  c #2F2F2F",
"q  c #343434",
"w  c #393939",
"e  c #3A3A3A",
"r  c gray24",
"t  c gray25",
"y  c #434343",
"u  c gray28",
"i  c #494949",
"p  c gray30",
"a  c #4E4E4E",
"s  c #505050",
"d  c #515151",
"f  c #565656",
"g  c gray38",
"h  c #646464",
"j  c #6A6A6A",
"k  c gray42",
"l  c #6C6C6C",
"z  c #6D6D6D",
"x  c gray44",
"c  c gray46",
"v  c #777777",
"b  c #797979",
"n  c gray49",
"m  c #848484",
"M  c #888888",
"N  c #8B8B8B",
"B  c #8D8D8D",
"V  c gray58",
"C  c #989898",
"Z  c #A0A0A0",
"A  c gray64",
"S  c #A4A4A4",
"D  c #A5A5A5",
"F  c #A7A7A7",
"G  c gray68",
"H  c #AEAEAE",
"J  c #AFAFAF",
"K  c #B1B1B1",
"L  c #B4B4B4",
"P  c gray71",
"I  c #B9B9B9",
"U  c gray74",
"Y  c gray",
"T  c #C6C6C6",
"R  c #C8C8C8",
"E  c gray79",
"W  c #CACACA",
"Q  c #CBCBCB",
"!  c gray81",
"~  c gray83",
"^  c #D8D8D8",
"/  c gray85",
"(  c #DADADA",
")  c gainsboro",
"_  c gray87",
"`  c #E2E2E2",
"'  c #E4E4E4",
"]  c gray90",
"[  c gray91",
"{  c #EAEAEA",
"}  c gray92",
"|  c #ECECEC",
" . c gray93",
".. c #EEEEEE",
"X. c #EFEFEF",
"o. c #F3F3F3",
"O. c #F4F4F4",
"+. c gray96",
"@. c #F6F6F6",
"#. c #F8F8F8",
"$. c #F9F9F9",
"%. c gray98",
"&. c #FBFBFB",
"*. c gray99",
"=. c #FDFDFD",
"-. c #FEFEFE",
";. c gray100",
":. c None",
/* pixels */
":.:.:.:.:.:.:.:.:.:.:.:.:.:.:.:.:.:.:.:.:.:.:.:.:.:.                        :.:.:.:.:.:.:.:.:.:.:.:.:.:.:.:.:.:.:.:.:.:.:.:.:.:.",
":.:.:.:.:.:.:.:.:.:.:.:.:.:.:.:.:.:.:.:.:.:.                                        :.:.:.:.:.:.:.:.:.:.:.:.:.:.:.:.:.:.:.:.:.:.",
":.:.:.:.:.:.:.:.:.:.:.:.:.:.:.:.:.:.:.:.                                                :.:.:.:.:.:.:.:.:.:.:.:.:.:.:.:.:.:.:.:.",
":.:.:.:.:.:.:.:.:.:.:.:.:.:.:.:.:.:.                                                        :.:.:.:.:.:.:.:.:.:.:.:.:.:.:.:.:.:.",
":.:.:.:.:.:.:.:.:.:.:.:.:.:.:.:.                                                                :.:.:.:.:.:.:.:.:.:.:.:.:.:.:.:.",
":.:.:.:.:.:.:.:.:.:.:.:.:.:.                                                                        :.:.:.:.:.:.:.:.:.:.:.:.:.:.",
":.:.:.:.:.:.:.:.:.:.:.:.:.                                                                            :.:.:.:.:.:.:.:.:.:.:.:.:.",
":.:.:.:.:.:.:.:.:.:.:.                                                                                  :.:.:.:.:.:.:.:.:.:.:.:.",
":.:.:.:.:.:.:.:.:.:.                                                                                        :.:.:.:.:.:.:.:.:.:.",
":.:.:.:.:.:.:.:.:.                                o 7 0 0 0 0 0 0 0 0 0 0 0 0 0 5 : $ o                       :.:.:.:.:.:.:.:.:.",
":.:.:.:.:.:.:.:.                                  5 ~ | } } } } } } } } } } } } ' / T F c q o                   :.:.:.:.:.:.:.:.",
":.:.:.:.:.:.:.                                    f %.;.;.;.;.;.;.;.;.;.;.;.;.;.;.;.;.;.;.} C <                 :.:.:.:.:.:.:.:.",
":.:.:.:.:.:.:.                                    N ;.;.;.;.;.;.;.;.;.;.;.;.;.;.;.;.;.;.;.;.;.L ;                 :.:.:.:.:.:.:.",
":.:.:.:.:.:.                                    $ Y ;.;.;.;.;.;.;.;.;.;.;.;.;.;.;.;.;.;.;.;.;.;.j                   :.:.:.:.:.:.",
":.:.:.:.:.                                      7 ' ;.;.;.;.;.;.;.;.;.;.;.;.;.;.;.;.;.;.;.;.;.;.L o                   :.:.:.:.:.",
":.:.:.:.:.                                      f %.;.;.;.;.;.;.;.;.;.;.;.;.;.;.;.;.;.;.;.;.;.;.R $                   :.:.:.:.:.",
":.:.:.:.                                        N ;.;.;.;.;.;.;.;.;.;.;.;.;.;.;.;.;.;.;.;.;.;.;.T *                     :.:.:.:.",
":.:.:.:.                                      $ Y ;.;.;.;.;.;.;.;.;.;.! m D ' ;.;.;.;.;.;.;.;.;.P o                     :.:.:.:.",
":.:.:.                                        7 ' ;.;.;.;.;.;.;.;.;.;.n     l ;.;.;.;.;.;.;.;.;.V                         :.:.:.",
":.:.:.                                        f %.;.;.;.;.;.;.;.;.;.@.i     p %.;.;.;.;.;.;.;.;.l                         :.:.:.",
":.:.                                          N ;.;.;.;.;.;.;.;.;.;.) 1     l ;.;.;.;.;.;.;.;.@.t                           :.:.",
":.:.                                        $ Y ;.;.;.;.;.;.;.;.;.;.L o     A ;.;.;.;.;.;.;.;.~ <                           :.:.",
":.                                          7 ' ;.;.;.;.;.;.;.;.;.;.n     ; ! ;.;.;.;.;.;.;.;.J o                           :.:.",
":.                                          f %.;.;.;.;.;.;.;.;.;.@.i     e | ;.;.;.;.;.;.;.;.b                               :.",
":.                                          N ;.;.;.;.;.;.;.;.;.;.) 1     j ;.;.;.;.;.;.;.;.@.i                               :.",
":.                                        $ Y ;.;.;.;.;.;.;.;.;.;.L @   o D ;.;.;.;.;.;.;.;./ <                               :.",
"                                          7 ' ;.;.;.;.;.;.;.;.;.;.n     5 ) ;.;.;.;.;.;.;.;.J @                               :.",
"                                          f %.;.;.;.;.;.;.;.;.;.o.u   o N ;.;.;.;.;.;.;.;.;.c                                   ",
"                                          N ;.;.;.;.;.;.;.;.;.;.| l g A o.;.;.;.;.;.;.;.;.| e                                   ",
"                                        $ Y ;.;.;.;.;.;.;.;.;.;.;.%.;.;.;.;.;.;.;.;.;.;.;.Y $                                   ",
"                                        7 ' ;.;.;.;.;.;.;.;.;.;.;.;.;.;.;.;.;.;.;.;.;.;.;.j                                     ",
"                                        f %.;.;.;.;.;.;.;.;.;.;.;.;.;.;.;.;.;.;.;.;.;.;.R :                                     ",
"                                        N ;.;.;.;.;.;.;.;.;.;.;.;.;.;.;.;.;.;.;.;.;.;.| d                                       ",
"                                      $ Y ;.;.;.;.;.;.;.;.;.;.;.;.;.;.;.;.;.;.;.;.;.} g                                         ",
"                                      7 ' ;.;.;.;.;.;.;.;.;.;.;.;.;.;.;.;.;.;.;.@.I u                                           ",
"                                      f %.;.;.;.;.;.;.;.;.;.;.%.%.%.%.%.o.' ! V p *                                             ",
"                                      N ;.;.;.;.;.;.;.;.;.;.` g d d d p r 7 *                                                   ",
"                                    $ Y ;.;.;.;.;.;.;.;.;.;.L o                                                               :.",
":.                                  7 ' ;.;.;.;.;.;.;.;.;.;.n                                                                 :.",
":.                                  f %.;.;.;.;.;.;.;.;.;.%.i                                                                 :.",
":.                                  N ;.;.;.;.;.;.;.;.;.;.) 1                                                                 :.",
":.:.                              $ Y ;.;.;.;.;.;.;.;.;.;.L o                                                               :.:.",
":.:.                              7 ' ;.;.;.;.;.;.;.;.;.;.n                                                                 :.:.",
":.:.                              f %.;.;.;.;.;.;.;.;.;.@.u                                                                 :.:.",
":.:.:.                            N ;.;.;.;.;.;.;.;.;.;.) 1                                                               :.:.:.",
":.:.:.                          $ Y ;.;.;.;.;.;.;.;.;.;.L @                                                               :.:.:.",
":.:.:.:.                        7 ' ;.;.;.;.;.;.;.;.;.;.n                                                               :.:.:.:.",
":.:.:.:.                        f %.;.;.;.;.;.;.;.;.;.@.i                                                               :.:.:.:.",
":.:.:.:.:.                      N ;.;.;.;.;.;.;.;.;.;.) 1                                                             :.:.:.:.:.",
":.:.:.:.:.                    $ Y ;.;.;.;.;.;.;.;.;.;.L o                                                             :.:.:.:.:.",
":.:.:.:.:.:.                  7 ' ;.;.;.;.;.;.;.;.;.;.b                                                             :.:.:.:.:.:.",
":.:.:.:.:.:.:.                f %.;.;.;.;.;.;.;.;.;.@.i                                                           :.:.:.:.:.:.:.",
":.:.:.:.:.:.:.:.              B ;.;.;.;.;.;.;.;.;.;.) 1                                                         :.:.:.:.:.:.:.:.",
":.:.:.:.:.:.:.:.            @ J | ' } ' ' } ' } } | D @                                                       :.:.:.:.:.:.:.:.:.",
":.:.:.:.:.:.:.:.:.          o 5 7 0 7 0 0 7 0 7 7 7 :                                                       :.:.:.:.:.:.:.:.:.:.",
":.:.:.:.:.:.:.:.:.:.                                                                                      :.:.:.:.:.:.:.:.:.:.:.",
":.:.:.:.:.:.:.:.:.:.:.:.                                                                                :.:.:.:.:.:.:.:.:.:.:.:.",
":.:.:.:.:.:.:.:.:.:.:.:.:.                                                                            :.:.:.:.:.:.:.:.:.:.:.:.:.",
":.:.:.:.:.:.:.:.:.:.:.:.:.:.                                                                        :.:.:.:.:.:.:.:.:.:.:.:.:.:.",
":.:.:.:.:.:.:.:.:.:.:.:.:.:.:.:.                                                                :.:.:.:.:.:.:.:.:.:.:.:.:.:.:.:.",
":.:.:.:.:.:.:.:.:.:.:.:.:.:.:.:.:.:.                                                        :.:.:.:.:.:.:.:.:.:.:.:.:.:.:.:.:.:.",
":.:.:.:.:.:.:.:.:.:.:.:.:.:.:.:.:.:.:.:.                                                :.:.:.:.:.:.:.:.:.:.:.:.:.:.:.:.:.:.:.:.",
":.:.:.:.:.:.:.:.:.:.:.:.:.:.:.:.:.:.:.:.:.:.:.                                    :.:.:.:.:.:.:.:.:.:.:.:.:.:.:.:.:.:.:.:.:.:.:.",
":.:.:.:.:.:.:.:.:.:.:.:.:.:.:.:.:.:.:.:.:.:.:.:.:.:.:.                    :.:.:.:.:.:.:.:.:.:.:.:.:.:.:.:.:.:.:.:.:.:.:.:.:.:.:."
};
